<mxfile host="app.diagrams.net" agent="Mozilla/5.0 (Windows NT 10.0; Win64; x64) AppleWebKit/537.36 (KHTML, like Gecko) Chrome/136.0.0.0 Safari/537.36 Avast/136.0.0.0" version="27.1.4">
  <diagram name="Page-3" id="fMjuLlYOlsZ5z2gDE5wW">
    <mxGraphModel dx="1042" dy="527" grid="1" gridSize="10" guides="1" tooltips="1" connect="1" arrows="1" fold="1" page="1" pageScale="1" pageWidth="827" pageHeight="1169" math="0" shadow="0">
      <root>
        <mxCell id="0" />
        <mxCell id="1" parent="0" />
        <mxCell id="3syt1zSSwUmMcx6NlKCd-8" value="Kupac podnosi zahtjev&amp;nbsp;" style="edgeStyle=orthogonalEdgeStyle;rounded=0;orthogonalLoop=1;jettySize=auto;html=1;exitX=1;exitY=0.5;exitDx=0;exitDy=0;entryX=0;entryY=0.5;entryDx=0;entryDy=0;" parent="1" source="3syt1zSSwUmMcx6NlKCd-1" target="3syt1zSSwUmMcx6NlKCd-2" edge="1">
          <mxGeometry relative="1" as="geometry" />
        </mxCell>
        <mxCell id="3syt1zSSwUmMcx6NlKCd-1" value="KUPAC" style="rounded=0;whiteSpace=wrap;html=1;" parent="1" vertex="1">
          <mxGeometry x="40" y="40" width="120" height="60" as="geometry" />
        </mxCell>
        <mxCell id="atLpQEnStqGC-lvI35bo-6" style="edgeStyle=orthogonalEdgeStyle;rounded=0;orthogonalLoop=1;jettySize=auto;html=1;exitX=0.5;exitY=1;exitDx=0;exitDy=0;entryX=0.5;entryY=0;entryDx=0;entryDy=0;" parent="1" source="3syt1zSSwUmMcx6NlKCd-2" target="3syt1zSSwUmMcx6NlKCd-3" edge="1">
          <mxGeometry relative="1" as="geometry" />
        </mxCell>
        <mxCell id="3syt1zSSwUmMcx6NlKCd-2" value="P4.1&lt;div&gt;Zahtjev za kupnju vina&lt;/div&gt;" style="rounded=1;whiteSpace=wrap;html=1;" parent="1" vertex="1">
          <mxGeometry x="400" y="40" width="120" height="60" as="geometry" />
        </mxCell>
        <mxCell id="9gYiXlBj19Lsn4L34eMv-8" style="edgeStyle=orthogonalEdgeStyle;rounded=0;orthogonalLoop=1;jettySize=auto;html=1;exitX=0.5;exitY=1;exitDx=0;exitDy=0;entryX=0.5;entryY=0;entryDx=0;entryDy=0;" parent="1" source="3syt1zSSwUmMcx6NlKCd-3" target="9gYiXlBj19Lsn4L34eMv-3" edge="1">
          <mxGeometry relative="1" as="geometry" />
        </mxCell>
        <mxCell id="3syt1zSSwUmMcx6NlKCd-3" value="P4.2&lt;div&gt;&lt;span style=&quot;background-color: transparent; color: light-dark(rgb(0, 0, 0), rgb(255, 255, 255));&quot;&gt;Obrada i administracija&lt;/span&gt;&lt;/div&gt;&lt;div&gt;&lt;span style=&quot;background-color: transparent; color: light-dark(rgb(0, 0, 0), rgb(255, 255, 255));&quot;&gt;&amp;nbsp;narudzbe&amp;nbsp;&lt;/span&gt;&lt;/div&gt;" style="rounded=1;whiteSpace=wrap;html=1;" parent="1" vertex="1">
          <mxGeometry x="400" y="160" width="120" height="60" as="geometry" />
        </mxCell>
        <mxCell id="3syt1zSSwUmMcx6NlKCd-5" value="P4.5&lt;div&gt;&lt;br&gt;&lt;/div&gt;&lt;div&gt;Pakiranje i isporuka vina&lt;/div&gt;" style="rounded=1;whiteSpace=wrap;html=1;" parent="1" vertex="1">
          <mxGeometry x="400" y="524.5" width="120" height="60" as="geometry" />
        </mxCell>
        <mxCell id="aJkDopGD4uhxeAJQOVu7-1" style="edgeStyle=orthogonalEdgeStyle;rounded=0;orthogonalLoop=1;jettySize=auto;html=1;exitX=1;exitY=0.5;exitDx=0;exitDy=0;entryX=0;entryY=0.5;entryDx=0;entryDy=0;" parent="1" source="3syt1zSSwUmMcx6NlKCd-6" target="3syt1zSSwUmMcx6NlKCd-5" edge="1">
          <mxGeometry relative="1" as="geometry" />
        </mxCell>
        <mxCell id="3syt1zSSwUmMcx6NlKCd-6" value="DJELATNIK" style="rounded=0;whiteSpace=wrap;html=1;" parent="1" vertex="1">
          <mxGeometry x="40" y="524.5" width="120" height="60" as="geometry" />
        </mxCell>
        <mxCell id="aJkDopGD4uhxeAJQOVu7-4" style="edgeStyle=orthogonalEdgeStyle;rounded=0;orthogonalLoop=1;jettySize=auto;html=1;exitX=0.5;exitY=0;exitDx=0;exitDy=0;exitPerimeter=0;entryX=0.5;entryY=1;entryDx=0;entryDy=0;" parent="1" source="3syt1zSSwUmMcx6NlKCd-7" target="9gYiXlBj19Lsn4L34eMv-21" edge="1">
          <mxGeometry relative="1" as="geometry" />
        </mxCell>
        <mxCell id="3syt1zSSwUmMcx6NlKCd-7" value="Baza podataka" style="shape=cylinder3;whiteSpace=wrap;html=1;boundedLbl=1;backgroundOutline=1;size=15;fillColor=#1ba1e2;fontColor=#ffffff;strokeColor=#006EAF;" parent="1" vertex="1">
          <mxGeometry x="695" y="509.5" width="70" height="90" as="geometry" />
        </mxCell>
        <mxCell id="j-RS9Aa45aK4MeALnXSv-2" value="" style="endArrow=none;html=1;rounded=0;exitX=0.007;exitY=0.367;exitDx=0;exitDy=0;exitPerimeter=0;entryX=1.007;entryY=0.38;entryDx=0;entryDy=0;entryPerimeter=0;elbow=vertical;" parent="1" source="3syt1zSSwUmMcx6NlKCd-2" target="3syt1zSSwUmMcx6NlKCd-2" edge="1">
          <mxGeometry width="50" height="50" relative="1" as="geometry">
            <mxPoint x="380" y="320" as="sourcePoint" />
            <mxPoint x="430" y="270" as="targetPoint" />
          </mxGeometry>
        </mxCell>
        <mxCell id="j-RS9Aa45aK4MeALnXSv-3" value="" style="endArrow=none;html=1;rounded=0;exitX=0;exitY=0.25;exitDx=0;exitDy=0;entryX=1;entryY=0.25;entryDx=0;entryDy=0;" parent="1" source="3syt1zSSwUmMcx6NlKCd-3" target="3syt1zSSwUmMcx6NlKCd-3" edge="1">
          <mxGeometry width="50" height="50" relative="1" as="geometry">
            <mxPoint x="380" y="320" as="sourcePoint" />
            <mxPoint x="430" y="270" as="targetPoint" />
          </mxGeometry>
        </mxCell>
        <mxCell id="atLpQEnStqGC-lvI35bo-7" value="DOBAVLJAČI" style="rounded=0;whiteSpace=wrap;html=1;" parent="1" vertex="1">
          <mxGeometry x="670" y="160" width="120" height="60" as="geometry" />
        </mxCell>
        <mxCell id="9gYiXlBj19Lsn4L34eMv-11" style="edgeStyle=orthogonalEdgeStyle;rounded=0;orthogonalLoop=1;jettySize=auto;html=1;exitX=0;exitY=0.5;exitDx=0;exitDy=0;entryX=1;entryY=0.5;entryDx=0;entryDy=0;" parent="1" source="9gYiXlBj19Lsn4L34eMv-3" target="9gYiXlBj19Lsn4L34eMv-10" edge="1">
          <mxGeometry relative="1" as="geometry">
            <Array as="points">
              <mxPoint x="210" y="310" />
              <mxPoint x="210" y="310" />
            </Array>
          </mxGeometry>
        </mxCell>
        <mxCell id="9gYiXlBj19Lsn4L34eMv-15" style="edgeStyle=orthogonalEdgeStyle;rounded=0;orthogonalLoop=1;jettySize=auto;html=1;exitX=0.5;exitY=1;exitDx=0;exitDy=0;entryX=0.5;entryY=0;entryDx=0;entryDy=0;" parent="1" source="9gYiXlBj19Lsn4L34eMv-3" target="9gYiXlBj19Lsn4L34eMv-12" edge="1">
          <mxGeometry relative="1" as="geometry" />
        </mxCell>
        <mxCell id="9gYiXlBj19Lsn4L34eMv-3" value="&lt;div&gt;&lt;span style=&quot;background-color: transparent; color: light-dark(rgb(0, 0, 0), rgb(255, 255, 255));&quot;&gt;P4.3&lt;/span&gt;&lt;/div&gt;&lt;div&gt;&lt;br&gt;&lt;/div&gt;&lt;div&gt;Izdavanje računa i naplata&lt;/div&gt;" style="rounded=1;whiteSpace=wrap;html=1;" parent="1" vertex="1">
          <mxGeometry x="400" y="280" width="120" height="60" as="geometry" />
        </mxCell>
        <mxCell id="9gYiXlBj19Lsn4L34eMv-4" value="" style="endArrow=none;html=1;rounded=0;exitX=0;exitY=0.25;exitDx=0;exitDy=0;entryX=1;entryY=0.25;entryDx=0;entryDy=0;" parent="1" source="9gYiXlBj19Lsn4L34eMv-3" target="9gYiXlBj19Lsn4L34eMv-3" edge="1">
          <mxGeometry width="50" height="50" relative="1" as="geometry">
            <mxPoint x="390" y="300" as="sourcePoint" />
            <mxPoint x="440" y="250" as="targetPoint" />
          </mxGeometry>
        </mxCell>
        <mxCell id="9gYiXlBj19Lsn4L34eMv-6" value="" style="endArrow=classic;html=1;rounded=0;exitX=1;exitY=0.75;exitDx=0;exitDy=0;entryX=0;entryY=0;entryDx=0;entryDy=60;entryPerimeter=0;" parent="1" source="3syt1zSSwUmMcx6NlKCd-5" target="3syt1zSSwUmMcx6NlKCd-7" edge="1">
          <mxGeometry width="50" height="50" relative="1" as="geometry">
            <mxPoint x="390" y="300" as="sourcePoint" />
            <mxPoint x="440" y="250" as="targetPoint" />
          </mxGeometry>
        </mxCell>
        <mxCell id="9gYiXlBj19Lsn4L34eMv-7" value="U bazu se&amp;nbsp;&lt;div&gt;sprema zapis&amp;nbsp;&lt;span style=&quot;background-color: light-dark(#ffffff, var(--ge-dark-color, #121212)); color: light-dark(rgb(0, 0, 0), rgb(255, 255, 255));&quot;&gt;o&lt;/span&gt;&lt;/div&gt;&lt;div&gt;&lt;span style=&quot;background-color: light-dark(#ffffff, var(--ge-dark-color, #121212)); color: light-dark(rgb(0, 0, 0), rgb(255, 255, 255));&quot;&gt;&amp;nbsp;kupcu i prodanom&lt;/span&gt;&lt;/div&gt;&lt;div&gt;vinu&lt;/div&gt;" style="edgeLabel;html=1;align=center;verticalAlign=middle;resizable=0;points=[];" parent="9gYiXlBj19Lsn4L34eMv-6" vertex="1" connectable="0">
          <mxGeometry x="-0.1104" y="-4" relative="1" as="geometry">
            <mxPoint as="offset" />
          </mxGeometry>
        </mxCell>
        <mxCell id="9gYiXlBj19Lsn4L34eMv-10" value="SUSTAV" style="rounded=0;whiteSpace=wrap;html=1;" parent="1" vertex="1">
          <mxGeometry x="40" y="280" width="120" height="60" as="geometry" />
        </mxCell>
        <mxCell id="9gYiXlBj19Lsn4L34eMv-16" style="edgeStyle=orthogonalEdgeStyle;rounded=0;orthogonalLoop=1;jettySize=auto;html=1;exitX=0.5;exitY=1;exitDx=0;exitDy=0;entryX=0.5;entryY=0;entryDx=0;entryDy=0;" parent="1" source="9gYiXlBj19Lsn4L34eMv-12" target="3syt1zSSwUmMcx6NlKCd-5" edge="1">
          <mxGeometry relative="1" as="geometry" />
        </mxCell>
        <mxCell id="9gYiXlBj19Lsn4L34eMv-12" value="P4.4&lt;div&gt;&lt;br&gt;&lt;/div&gt;&lt;div&gt;Potvrda o uspješnosti narudžbe i naplate&lt;/div&gt;" style="rounded=1;whiteSpace=wrap;html=1;" parent="1" vertex="1">
          <mxGeometry x="400" y="400" width="120" height="60" as="geometry" />
        </mxCell>
        <mxCell id="9gYiXlBj19Lsn4L34eMv-13" value="" style="endArrow=none;html=1;rounded=0;" parent="1" edge="1">
          <mxGeometry width="50" height="50" relative="1" as="geometry">
            <mxPoint x="400" y="423" as="sourcePoint" />
            <mxPoint x="520" y="423" as="targetPoint" />
            <Array as="points" />
          </mxGeometry>
        </mxCell>
        <mxCell id="9gYiXlBj19Lsn4L34eMv-14" value="" style="endArrow=none;html=1;rounded=0;exitX=0;exitY=0.25;exitDx=0;exitDy=0;entryX=1;entryY=0.25;entryDx=0;entryDy=0;" parent="1" source="3syt1zSSwUmMcx6NlKCd-5" target="3syt1zSSwUmMcx6NlKCd-5" edge="1">
          <mxGeometry width="50" height="50" relative="1" as="geometry">
            <mxPoint x="450" y="350" as="sourcePoint" />
            <mxPoint x="500" y="300" as="targetPoint" />
          </mxGeometry>
        </mxCell>
        <mxCell id="kfIwngVQNAMgMarY0jvN-1" style="edgeStyle=orthogonalEdgeStyle;rounded=0;orthogonalLoop=1;jettySize=auto;html=1;exitX=0.5;exitY=0;exitDx=0;exitDy=0;entryX=0.5;entryY=1;entryDx=0;entryDy=0;" parent="1" source="9gYiXlBj19Lsn4L34eMv-21" target="atLpQEnStqGC-lvI35bo-7" edge="1">
          <mxGeometry relative="1" as="geometry" />
        </mxCell>
        <mxCell id="9gYiXlBj19Lsn4L34eMv-21" value="&lt;font style=&quot;font-size: 10px;&quot;&gt;Zalihe&amp;lt;minimum&lt;/font&gt;" style="rhombus;whiteSpace=wrap;html=1;" parent="1" vertex="1">
          <mxGeometry x="685" y="310" width="90" height="90" as="geometry" />
        </mxCell>
        <mxCell id="aJkDopGD4uhxeAJQOVu7-6" value="" style="endArrow=classic;html=1;rounded=0;exitX=1;exitY=1;exitDx=0;exitDy=0;entryX=0.013;entryY=0.064;entryDx=0;entryDy=0;entryPerimeter=0;" parent="1" source="3syt1zSSwUmMcx6NlKCd-3" target="3syt1zSSwUmMcx6NlKCd-7" edge="1">
          <mxGeometry width="50" height="50" relative="1" as="geometry">
            <mxPoint x="450" y="350" as="sourcePoint" />
            <mxPoint x="500" y="300" as="targetPoint" />
          </mxGeometry>
        </mxCell>
        <mxCell id="aJkDopGD4uhxeAJQOVu7-7" value="Azuriranje&lt;div&gt;&amp;nbsp;zaliha&lt;/div&gt;" style="edgeLabel;html=1;align=center;verticalAlign=middle;resizable=0;points=[];" parent="aJkDopGD4uhxeAJQOVu7-6" vertex="1" connectable="0">
          <mxGeometry x="0.21" y="-3" relative="1" as="geometry">
            <mxPoint x="6" as="offset" />
          </mxGeometry>
        </mxCell>
        <mxCell id="aJkDopGD4uhxeAJQOVu7-8" value="" style="endArrow=classic;html=1;rounded=0;exitX=0;exitY=0.5;exitDx=0;exitDy=0;entryX=1;entryY=0.75;entryDx=0;entryDy=0;" parent="1" source="9gYiXlBj19Lsn4L34eMv-12" target="3syt1zSSwUmMcx6NlKCd-1" edge="1">
          <mxGeometry width="50" height="50" relative="1" as="geometry">
            <mxPoint x="450" y="350" as="sourcePoint" />
            <mxPoint x="200" y="140" as="targetPoint" />
          </mxGeometry>
        </mxCell>
        <mxCell id="kfIwngVQNAMgMarY0jvN-7" value="e-mail" style="edgeLabel;html=1;align=center;verticalAlign=middle;resizable=0;points=[];" parent="aJkDopGD4uhxeAJQOVu7-8" vertex="1" connectable="0">
          <mxGeometry x="-0.0022" relative="1" as="geometry">
            <mxPoint as="offset" />
          </mxGeometry>
        </mxCell>
        <mxCell id="aJkDopGD4uhxeAJQOVu7-9" value="" style="endArrow=classic;html=1;rounded=0;exitX=0;exitY=0;exitDx=0;exitDy=0;entryX=0.75;entryY=1;entryDx=0;entryDy=0;" parent="1" source="3syt1zSSwUmMcx6NlKCd-5" target="3syt1zSSwUmMcx6NlKCd-1" edge="1">
          <mxGeometry width="50" height="50" relative="1" as="geometry">
            <mxPoint x="450" y="350" as="sourcePoint" />
            <mxPoint x="110" y="120" as="targetPoint" />
          </mxGeometry>
        </mxCell>
        <mxCell id="aJkDopGD4uhxeAJQOVu7-10" value="Isporuka&amp;nbsp;&lt;div&gt;vina&lt;/div&gt;&lt;div&gt;kupcu&lt;/div&gt;" style="edgeLabel;html=1;align=center;verticalAlign=middle;resizable=0;points=[];" parent="aJkDopGD4uhxeAJQOVu7-9" vertex="1" connectable="0">
          <mxGeometry x="0.6102" relative="1" as="geometry">
            <mxPoint x="8" y="20" as="offset" />
          </mxGeometry>
        </mxCell>
        <mxCell id="kfIwngVQNAMgMarY0jvN-2" value="DA" style="text;html=1;align=center;verticalAlign=middle;resizable=0;points=[];autosize=1;strokeColor=none;fillColor=none;" parent="1" vertex="1">
          <mxGeometry x="725" y="280" width="40" height="30" as="geometry" />
        </mxCell>
        <mxCell id="kfIwngVQNAMgMarY0jvN-5" value="NE" style="text;html=1;align=center;verticalAlign=middle;resizable=0;points=[];autosize=1;strokeColor=none;fillColor=none;" parent="1" vertex="1">
          <mxGeometry x="655" y="320" width="40" height="30" as="geometry" />
        </mxCell>
        <mxCell id="kfIwngVQNAMgMarY0jvN-6" value="" style="endArrow=classic;html=1;rounded=0;exitX=0;exitY=0.5;exitDx=0;exitDy=0;entryX=1;entryY=0.5;entryDx=0;entryDy=0;" parent="1" source="9gYiXlBj19Lsn4L34eMv-21" target="3syt1zSSwUmMcx6NlKCd-3" edge="1">
          <mxGeometry width="50" height="50" relative="1" as="geometry">
            <mxPoint x="450" y="350" as="sourcePoint" />
            <mxPoint x="500" y="300" as="targetPoint" />
            <Array as="points">
              <mxPoint x="650" y="340" />
            </Array>
          </mxGeometry>
        </mxCell>
        <mxCell id="kfIwngVQNAMgMarY0jvN-8" value="Automatska&amp;nbsp;&lt;div&gt;narudžba&lt;/div&gt;" style="text;html=1;align=center;verticalAlign=middle;resizable=0;points=[];autosize=1;strokeColor=none;fillColor=none;" parent="1" vertex="1">
          <mxGeometry x="685" y="240" width="90" height="40" as="geometry" />
        </mxCell>
      </root>
    </mxGraphModel>
  </diagram>
</mxfile>
